<svg width="159" height="117" viewBox="0 0 159 117" fill="none" xmlns="http://www.w3.org/2000/svg">
<path d="M5.1 116C4.10267 116 3.21867 115.728 2.448 115.184C1.67733 114.64 1.07667 113.903 0.646 112.974C0.215333 112.022 0 110.934 0 109.71V91.146C0 90.6473 0.158667 90.2393 0.476 89.922C0.793333 89.6047 1.20133 89.446 1.7 89.446C2.19867 89.446 2.60667 89.6047 2.924 89.922C3.24133 90.2393 3.4 90.6473 3.4 91.146V109.71C3.4 110.549 3.55867 111.24 3.876 111.784C4.19333 112.328 4.60133 112.6 5.1 112.6H5.95C6.40333 112.6 6.766 112.759 7.038 113.076C7.33267 113.393 7.48 113.801 7.48 114.3C7.48 114.799 7.26467 115.207 6.834 115.524C6.40333 115.841 5.848 116 5.168 116H5.1Z" fill="#569900"/>
<path d="M12.9474 116C12.4487 116 12.0294 115.841 11.6894 115.524C11.372 115.184 11.2134 114.765 11.2134 114.266V99.136C11.2134 98.6147 11.372 98.1953 11.6894 97.878C12.0294 97.5607 12.4487 97.402 12.9474 97.402C13.4687 97.402 13.888 97.5607 14.2054 97.878C14.5227 98.1953 14.6814 98.6147 14.6814 99.136V114.266C14.6814 114.765 14.5227 115.184 14.2054 115.524C13.888 115.841 13.4687 116 12.9474 116ZM12.9474 94.376C12.3354 94.376 11.8027 94.1607 11.3494 93.73C10.9187 93.2767 10.7034 92.744 10.7034 92.132C10.7034 91.52 10.9187 90.9987 11.3494 90.568C11.8027 90.1147 12.3354 89.888 12.9474 89.888C13.5594 89.888 14.0807 90.1147 14.5114 90.568C14.9647 90.9987 15.1914 91.52 15.1914 92.132C15.1914 92.744 14.9647 93.2767 14.5114 93.73C14.0807 94.1607 13.5594 94.376 12.9474 94.376Z" fill="#569900"/>
<path d="M30.4831 116.136C28.7151 116.136 27.1285 115.728 25.7231 114.912C24.3178 114.073 23.2071 112.94 22.3911 111.512C21.5751 110.084 21.1558 108.475 21.1331 106.684V91.18C21.1331 90.6587 21.2918 90.2393 21.6091 89.922C21.9491 89.6047 22.3685 89.446 22.8671 89.446C23.3885 89.446 23.8078 89.6047 24.1251 89.922C24.4425 90.2393 24.6011 90.6587 24.6011 91.18V100.36C25.3945 99.408 26.3465 98.66 27.4571 98.116C28.5905 97.5493 29.8258 97.266 31.1631 97.266C32.8178 97.266 34.3025 97.6853 35.6171 98.524C36.9318 99.34 37.9631 100.462 38.7111 101.89C39.4818 103.295 39.8671 104.893 39.8671 106.684C39.8671 108.475 39.4478 110.084 38.6091 111.512C37.7931 112.94 36.6825 114.073 35.2771 114.912C33.8718 115.728 32.2738 116.136 30.4831 116.136ZM30.4831 113.076C31.6391 113.076 32.6705 112.804 33.5771 112.26C34.4838 111.693 35.1978 110.923 35.7191 109.948C36.2631 108.973 36.5351 107.885 36.5351 106.684C36.5351 105.46 36.2631 104.372 35.7191 103.42C35.1978 102.468 34.4838 101.72 33.5771 101.176C32.6705 100.609 31.6391 100.326 30.4831 100.326C29.3498 100.326 28.3185 100.609 27.3891 101.176C26.4825 101.72 25.7685 102.468 25.2471 103.42C24.7258 104.372 24.4651 105.46 24.4651 106.684C24.4651 107.885 24.7258 108.973 25.2471 109.948C25.7685 110.923 26.4825 111.693 27.3891 112.26C28.3185 112.804 29.3498 113.076 30.4831 113.076Z" fill="#569900"/>
<path d="M53.7774 116.136C51.896 116.136 50.2187 115.739 48.7454 114.946C47.2947 114.13 46.15 113.019 45.3114 111.614C44.4954 110.186 44.0874 108.554 44.0874 106.718C44.0874 104.859 44.4727 103.227 45.2434 101.822C46.0367 100.394 47.1247 99.2833 48.5074 98.49C49.89 97.674 51.4767 97.266 53.2674 97.266C55.0354 97.266 56.554 97.6627 57.8234 98.456C59.0927 99.2267 60.056 100.303 60.7134 101.686C61.3934 103.046 61.7334 104.621 61.7334 106.412C61.7334 106.843 61.586 107.205 61.2914 107.5C60.9967 107.772 60.6227 107.908 60.1694 107.908H47.2494C47.4987 109.472 48.2127 110.753 49.3914 111.75C50.5927 112.725 52.0547 113.212 53.7774 113.212C54.48 113.212 55.194 113.087 55.9194 112.838C56.6674 112.566 57.268 112.26 57.7214 111.92C58.0614 111.671 58.424 111.546 58.8094 111.546C59.2174 111.523 59.5687 111.637 59.8634 111.886C60.2487 112.226 60.4527 112.6 60.4754 113.008C60.498 113.416 60.3167 113.767 59.9314 114.062C59.1607 114.674 58.1974 115.173 57.0414 115.558C55.908 115.943 54.82 116.136 53.7774 116.136ZM53.2674 100.19C51.59 100.19 50.2414 100.655 49.2214 101.584C48.2014 102.513 47.5554 103.715 47.2834 105.188H58.6054C58.4014 103.737 57.846 102.547 56.9394 101.618C56.0327 100.666 54.8087 100.19 53.2674 100.19Z" fill="#569900"/>
<path d="M67.8566 116C66.7232 116 66.1566 115.433 66.1566 114.3V99.102C66.1566 97.9687 66.7232 97.402 67.8566 97.402C68.9899 97.402 69.5566 97.9687 69.5566 99.102V99.748C70.2366 98.9547 71.0639 98.3313 72.0386 97.878C73.0359 97.4247 74.1126 97.198 75.2686 97.198C76.6286 97.198 77.6372 97.4247 78.2946 97.878C78.9746 98.3087 79.2352 98.83 79.0766 99.442C78.9632 99.918 78.7366 100.235 78.3966 100.394C78.0566 100.53 77.6599 100.553 77.2066 100.462C75.7559 100.167 74.4526 100.145 73.2966 100.394C72.1406 100.643 71.2226 101.108 70.5426 101.788C69.8852 102.468 69.5566 103.329 69.5566 104.372V114.3C69.5566 115.433 68.9899 116 67.8566 116Z" fill="#569900"/>
<path d="M84.6978 115.554C84.2671 115.554 83.8818 115.395 83.5418 115.078C83.2018 114.761 83.0318 114.341 83.0318 113.82V100.56H81.5698C81.0938 100.56 80.7085 100.424 80.4138 100.152C80.1191 99.88 79.9718 99.54 79.9718 99.132C79.9718 98.6787 80.1191 98.316 80.4138 98.044C80.7085 97.772 81.0938 97.636 81.5698 97.636H83.0318V97.058C83.0318 95.426 83.3491 94.0093 83.9838 92.808C84.6411 91.6067 85.5478 90.6773 86.7038 90.02C87.8598 89.34 89.1971 89 90.7158 89C91.2145 89 91.6225 89.1473 91.9398 89.442C92.2798 89.7367 92.4498 90.1107 92.4498 90.564C92.4498 90.9947 92.2798 91.3687 91.9398 91.686C91.6225 91.9807 91.2145 92.128 90.7158 92.128C89.4465 92.128 88.4265 92.5473 87.6558 93.386C86.8851 94.2247 86.4998 95.3353 86.4998 96.718V97.636H89.9678C90.4438 97.636 90.8291 97.772 91.1238 98.044C91.4185 98.316 91.5658 98.6787 91.5658 99.132C91.5658 99.54 91.4185 99.88 91.1238 100.152C90.8291 100.424 90.4438 100.56 89.9678 100.56H86.4998V113.82C86.4998 114.341 86.3411 114.761 86.0238 115.078C85.7065 115.395 85.2645 115.554 84.6978 115.554Z" fill="black"/>
<path d="M102.944 115.69C101.108 115.69 99.4874 115.293 98.0821 114.5C96.6768 113.684 95.5661 112.573 94.7501 111.168C93.9568 109.74 93.5601 108.108 93.5601 106.272C93.5601 104.413 93.9568 102.781 94.7501 101.376C95.5661 99.948 96.6768 98.8373 98.0821 98.044C99.4874 97.228 101.108 96.82 102.944 96.82C104.757 96.82 106.367 97.228 107.772 98.044C109.177 98.8373 110.277 99.948 111.07 101.376C111.886 102.781 112.294 104.413 112.294 106.272C112.294 108.108 111.897 109.74 111.104 111.168C110.311 112.573 109.211 113.684 107.806 114.5C106.401 115.293 104.78 115.69 102.944 115.69ZM102.944 112.63C104.123 112.63 105.165 112.358 106.072 111.814C106.979 111.27 107.681 110.522 108.18 109.57C108.701 108.618 108.962 107.519 108.962 106.272C108.962 105.025 108.701 103.926 108.18 102.974C107.681 101.999 106.979 101.24 106.072 100.696C105.165 100.152 104.123 99.88 102.944 99.88C101.765 99.88 100.723 100.152 99.8161 100.696C98.9094 101.24 98.1955 101.999 97.6741 102.974C97.1528 103.926 96.8921 105.025 96.8921 106.272C96.8921 107.519 97.1528 108.618 97.6741 109.57C98.1955 110.522 98.9094 111.27 99.8161 111.814C100.723 112.358 101.765 112.63 102.944 112.63Z" fill="black"/>
<path d="M125.887 115.69C124.051 115.69 122.431 115.293 121.025 114.5C119.62 113.684 118.509 112.573 117.693 111.168C116.9 109.74 116.503 108.108 116.503 106.272C116.503 104.413 116.9 102.781 117.693 101.376C118.509 99.948 119.62 98.8373 121.025 98.044C122.431 97.228 124.051 96.82 125.887 96.82C127.701 96.82 129.31 97.228 130.715 98.044C132.121 98.8373 133.22 99.948 134.013 101.376C134.829 102.781 135.237 104.413 135.237 106.272C135.237 108.108 134.841 109.74 134.047 111.168C133.254 112.573 132.155 113.684 130.749 114.5C129.344 115.293 127.723 115.69 125.887 115.69ZM125.887 112.63C127.066 112.63 128.109 112.358 129.015 111.814C129.922 111.27 130.625 110.522 131.123 109.57C131.645 108.618 131.905 107.519 131.905 106.272C131.905 105.025 131.645 103.926 131.123 102.974C130.625 101.999 129.922 101.24 129.015 100.696C128.109 100.152 127.066 99.88 125.887 99.88C124.709 99.88 123.666 100.152 122.759 100.696C121.853 101.24 121.139 101.999 120.617 102.974C120.096 103.926 119.835 105.025 119.835 106.272C119.835 107.519 120.096 108.618 120.617 109.57C121.139 110.522 121.853 111.27 122.759 111.814C123.666 112.358 124.709 112.63 125.887 112.63Z" fill="black"/>
<path d="M148.831 115.69C147.063 115.69 145.465 115.282 144.037 114.466C142.631 113.627 141.509 112.494 140.671 111.066C139.855 109.638 139.447 108.029 139.447 106.238C139.447 104.447 139.821 102.849 140.569 101.444C141.339 100.016 142.382 98.894 143.697 98.078C145.011 97.2393 146.496 96.82 148.151 96.82C149.488 96.82 150.724 97.1033 151.857 97.67C152.99 98.214 153.942 98.962 154.713 99.914V90.734C154.713 90.2127 154.872 89.7933 155.189 89.476C155.529 89.1587 155.948 89 156.447 89C156.968 89 157.387 89.1587 157.705 89.476C158.022 89.7933 158.181 90.2127 158.181 90.734V106.238C158.181 108.029 157.761 109.638 156.923 111.066C156.107 112.494 154.996 113.627 153.591 114.466C152.185 115.282 150.599 115.69 148.831 115.69ZM148.831 112.63C149.987 112.63 151.018 112.358 151.925 111.814C152.831 111.247 153.545 110.477 154.067 109.502C154.588 108.527 154.849 107.439 154.849 106.238C154.849 105.014 154.588 103.926 154.067 102.974C153.545 102.022 152.831 101.274 151.925 100.73C151.018 100.163 149.987 99.88 148.831 99.88C147.697 99.88 146.666 100.163 145.737 100.73C144.83 101.274 144.105 102.022 143.561 102.974C143.039 103.926 142.779 105.014 142.779 106.238C142.779 107.439 143.039 108.527 143.561 109.502C144.105 110.477 144.83 111.247 145.737 111.814C146.666 112.358 147.697 112.63 148.831 112.63Z" fill="black"/>
<circle cx="80.0623" cy="36.5917" r="26.4706" fill="#9AFF1A"/>
<path fill-rule="evenodd" clip-rule="evenodd" d="M79.8027 65.9169C95.5686 65.9169 108.349 53.1361 108.349 37.3702C108.349 21.6043 95.5686 8.82352 79.8027 8.82352C64.0368 8.82352 51.256 21.6043 51.256 37.3702C51.256 53.1361 64.0368 65.9169 79.8027 65.9169ZM79.9324 60.9861C92.9035 60.9861 103.419 50.471 103.419 37.5C103.419 24.5289 92.9035 14.0138 79.9324 14.0138C66.9614 14.0138 56.4463 24.5289 56.4463 37.5C56.4463 50.471 66.9614 60.9861 79.9324 60.9861Z" fill="black"/>
<path fill-rule="evenodd" clip-rule="evenodd" d="M79.9325 75C100.643 75 117.432 58.2107 117.432 37.5C117.432 16.7893 100.643 0 79.9325 0C59.2218 0 42.4325 16.7893 42.4325 37.5C42.4325 58.2107 59.2218 75 79.9325 75ZM80.103 71.6949C98.8941 71.6949 114.127 56.4617 114.127 37.6705C114.127 18.8793 98.8941 3.646 80.103 3.646C61.3118 3.646 46.0785 18.8793 46.0785 37.6705C46.0785 56.4617 61.3118 71.6949 80.103 71.6949Z" fill="black"/>
<path fill-rule="evenodd" clip-rule="evenodd" d="M81.4247 28.5734C81.7113 27.7278 82.0745 26.9809 82.5143 26.3326C82.9544 25.6909 83.461 25.1422 84.034 24.6864C84.607 24.2306 85.2367 23.8718 85.9232 23.6102C86.6149 23.3546 87.3533 23.1937 88.1383 23.1275C88.9481 23.0591 89.7237 23.1054 90.4652 23.2662C91.2069 23.4336 91.8965 23.7007 92.5338 24.0674C93.1711 24.4342 93.7486 24.898 94.2664 25.4589C94.7891 26.0193 95.2362 26.6584 95.6078 27.3762L95.0778 27.9532C94.7627 27.5855 94.3894 27.2458 93.958 26.9339C93.5269 26.6286 93.0361 26.371 92.4857 26.1612C91.9401 25.9509 91.3305 25.7987 90.6567 25.7044C89.9878 25.6098 89.2584 25.5958 88.4684 25.6624C87.7475 25.7233 87.064 25.8401 86.4179 26.013C85.777 26.1919 85.1808 26.423 84.6293 26.7061C84.083 26.9953 83.5887 27.3361 83.1465 27.7282C82.7043 28.1204 82.324 28.5632 82.0056 29.0567L81.4247 28.5734ZM64.8251 29.9779C65.1116 29.1323 65.4748 28.3853 65.9147 27.7371C66.3548 27.0954 66.8614 26.5466 67.4344 26.0908C68.0074 25.635 68.6371 25.2763 69.3236 25.0146C70.0153 24.7591 70.7537 24.5982 71.5387 24.5319C72.3485 24.4636 73.1241 24.5098 73.8656 24.6706C74.6073 24.838 75.2969 25.1051 75.9342 25.4719C76.5715 25.8386 77.149 26.3025 77.6668 26.8633C78.1895 27.4238 78.6366 28.0629 79.0082 28.7806L78.4782 29.3577C78.1631 28.99 77.7898 28.6502 77.3584 28.3383C76.9273 28.033 76.4365 27.7754 75.886 27.5656C75.3405 27.3554 74.7309 27.2031 74.0571 27.1089C73.3882 27.0142 72.6588 27.0002 71.8687 27.0669C71.1479 27.1278 70.4644 27.2446 69.8183 27.4174C69.1774 27.5964 68.5812 27.8274 68.0297 28.1105C67.4834 28.3998 66.9891 28.7405 66.5469 29.1327C66.1047 29.5249 65.7244 29.9677 65.406 30.4611L64.8251 29.9779ZM88.7633 53.8092C90.1175 53.3974 91.4134 52.7632 92.6509 51.9066L91.9861 50.5888C90.9855 50.9206 89.9134 51.113 88.7696 51.1663C87.6258 51.2195 86.4294 51.1433 85.1802 50.9377C83.9265 50.7178 82.6342 50.3758 81.3035 49.9117C79.9681 49.4333 78.6109 48.8355 77.2318 48.1183C75.7204 47.3323 74.3883 46.5015 73.2355 45.626C72.76 45.2658 72.3125 44.9041 71.8929 44.5408C72.9441 45.1548 74.0848 45.6776 75.3149 46.1093C76.844 46.6348 78.4767 46.9893 80.2132 47.1727C81.8967 47.3506 83.507 47.3601 85.0441 47.2013C86.5717 47.0307 88.0055 46.6844 89.3454 46.1621C90.6854 45.6399 91.9097 44.9448 93.0185 44.077C94.1284 43.1985 95.1027 42.1344 95.9413 40.8847L94.8407 39.9012C94.0307 40.5758 93.1032 41.147 92.0581 41.6147C91.013 42.0825 89.8715 42.449 88.6336 42.7144C87.3863 42.9681 86.0585 43.1222 84.6502 43.1769C83.2324 43.2198 81.7506 43.1596 80.2047 42.9963C78.5106 42.8174 76.967 42.5312 75.5739 42.1378C74.1702 41.7432 72.9184 41.2791 71.8185 40.7454C70.708 40.2105 69.7371 39.6208 68.9059 38.9763C68.0757 38.3211 67.3766 37.6424 66.8084 36.9399L65.5266 37.6718C65.5443 37.7101 65.5622 37.7483 65.5802 37.7864L65.5168 37.7956C65.5991 39.2065 65.8866 40.5921 66.3793 41.9524C66.8625 43.3078 67.5373 44.5948 68.4037 45.8134C69.2701 47.032 70.3163 48.1702 71.5424 49.2278C72.7734 50.276 74.1635 51.203 75.7127 52.0086C77.2146 52.7897 78.7099 53.3873 80.1987 53.8015C81.6828 54.2013 83.144 54.4031 84.5821 54.407C86.0202 54.4108 87.4139 54.2115 88.7633 53.8092ZM84.6511 39.0205C84.3452 39.2015 83.9313 39.0954 83.7502 38.7895L80.7445 33.7119C80.5635 33.406 80.6696 32.9921 80.9755 32.8111L82.0766 32.1592C82.3825 31.9782 82.7721 32.078 82.9531 32.3839L85.0054 35.816L92.3466 31.4705C92.6524 31.2894 93.042 31.3892 93.2231 31.6951L93.8749 32.7963C94.056 33.1022 93.9499 33.5161 93.644 33.6972L84.6511 39.0205Z" fill="black"/>
</svg>
